M48
; DRILL file KiCad 10.0.1 date 2026-06-11T11:24:59
; FORMAT={-:-/ absolute / metric / decimal}
; #@! TF.CreationDate,2026-06-11T11:24:59+05:30
; #@! TF.GenerationSoftware,Kicad,Pcbnew,10.0.1
; #@! TF.FileFunction,Plated,1,2,PTH
FMAT,2
METRIC
; #@! TA.AperFunction,Plated,PTH,ViaDrill
T1C0.300
; #@! TA.AperFunction,Plated,PTH,ComponentDrill
T2C0.700
; #@! TA.AperFunction,Plated,PTH,ComponentDrill
T3C0.800
; #@! TA.AperFunction,Plated,PTH,ComponentDrill
T4C0.900
; #@! TA.AperFunction,Plated,PTH,ComponentDrill
T5C1.300
%
G90
G05
T1
X192.69Y-27.66
X192.69Y-29.96
X201.475Y-30.03
T2
X173.19Y-28.81
X174.38Y-43.81
X180.81Y-28.81
X182.0Y-43.81
X196.69Y-36.5
X196.69Y-45.5
X204.31Y-36.5
X204.31Y-45.5
T3
X185.19Y-38.69
X185.19Y-41.23
X185.19Y-43.77
X185.19Y-46.31
X192.81Y-38.69
X192.81Y-41.23
X192.81Y-43.77
X192.81Y-46.31
T4
X165.69Y-31.35
X165.69Y-33.89
X165.69Y-41.27
X165.69Y-43.81
T5
X213.19Y-31.31
X213.19Y-36.31
X213.19Y-41.31
M30
